<?xml version="1.0" encoding="iso-8859-1"?>
<!-- Uploaded to: SVG Repo, www.svgrepo.com, Generator: SVG Repo Mixer Tools -->
<svg version="1.1" id="Layer_1" xmlns="http://www.w3.org/2000/svg" xmlns:xlink="http://www.w3.org/1999/xlink" 
	 viewBox="0 0 512 512" xml:space="preserve">
<rect y="167.304" width="512" height="230.664"/>
<g>
	<rect x="36" y="201.28" style="fill:#515151;" width="33.392" height="26.8"/>
	<rect x="81.176" y="201.28" style="fill:#515151;" width="33.392" height="26.8"/>
	<rect x="126.36" y="201.28" style="fill:#515151;" width="33.392" height="26.8"/>
	<rect x="171.536" y="201.28" style="fill:#515151;" width="33.392" height="26.8"/>
	<rect x="216.72" y="201.28" style="fill:#515151;" width="33.392" height="26.8"/>
	<rect x="261.896" y="201.28" style="fill:#515151;" width="33.392" height="26.8"/>
	<rect x="307.04" y="201.28" style="fill:#515151;" width="33.392" height="26.8"/>
	<rect x="352.24" y="201.28" style="fill:#515151;" width="33.392" height="26.8"/>
	<rect x="397.432" y="201.28" style="fill:#515151;" width="33.392" height="26.8"/>
	<rect x="442.64" y="201.28" style="fill:#515151;" width="33.392" height="26.8"/>
	<rect x="36" y="236.256" style="fill:#515151;" width="33.392" height="26.8"/>
	<rect x="81.176" y="236.256" style="fill:#515151;" width="33.392" height="26.8"/>
	<rect x="126.36" y="236.256" style="fill:#515151;" width="33.392" height="26.8"/>
	<rect x="171.536" y="236.256" style="fill:#515151;" width="33.392" height="26.8"/>
	<rect x="216.72" y="236.256" style="fill:#515151;" width="33.392" height="26.8"/>
	<rect x="261.896" y="236.256" style="fill:#515151;" width="33.392" height="26.8"/>
	<rect x="307.04" y="236.256" style="fill:#515151;" width="33.392" height="26.8"/>
	<rect x="352.24" y="236.256" style="fill:#515151;" width="33.392" height="26.8"/>
	<rect x="397.432" y="236.256" style="fill:#515151;" width="33.392" height="26.8"/>
	<rect x="442.64" y="236.256" style="fill:#515151;" width="33.392" height="26.8"/>
	<rect x="36" y="271.256" style="fill:#515151;" width="33.392" height="26.8"/>
	<rect x="81.176" y="271.256" style="fill:#515151;" width="33.392" height="26.8"/>
	<rect x="126.36" y="271.256" style="fill:#515151;" width="33.392" height="26.8"/>
	<rect x="171.536" y="271.256" style="fill:#515151;" width="33.392" height="26.8"/>
	<rect x="216.72" y="271.256" style="fill:#515151;" width="33.392" height="26.8"/>
	<rect x="261.896" y="271.256" style="fill:#515151;" width="33.392" height="26.8"/>
	<rect x="307.04" y="271.256" style="fill:#515151;" width="33.392" height="26.8"/>
	<rect x="352.24" y="271.256" style="fill:#515151;" width="33.392" height="26.8"/>
	<rect x="397.432" y="271.256" style="fill:#515151;" width="33.392" height="26.8"/>
	<rect x="442.64" y="271.256" style="fill:#515151;" width="33.392" height="26.8"/>
	<rect x="103.784" y="306.24" style="fill:#515151;" width="33.392" height="26.8"/>
	<rect x="148.96" y="306.24" style="fill:#515151;" width="33.392" height="26.8"/>
	<rect x="194.144" y="306.24" style="fill:#515151;" width="33.392" height="26.8"/>
	<rect x="239.32" y="306.24" style="fill:#515151;" width="33.392" height="26.8"/>
	<rect x="284.496" y="306.24" style="fill:#515151;" width="33.392" height="26.8"/>
	<rect x="329.68" y="306.24" style="fill:#515151;" width="33.392" height="26.8"/>
	<rect x="374.856" y="306.24" style="fill:#515151;" width="33.392" height="26.8"/>
	<rect x="36" y="306.24" style="fill:#515151;" width="56" height="26.8"/>
	<rect x="420" y="306.24" style="fill:#515151;" width="56" height="26.8"/>
	<rect x="36" y="341.256" style="fill:#515151;" width="33.392" height="26.8"/>
	<rect x="81.176" y="341.256" style="fill:#515151;" width="33.392" height="26.8"/>
	<rect x="126.36" y="341.256" style="fill:#515151;" width="33.392" height="26.8"/>
	<rect x="171.536" y="341.256" style="fill:#515151;" width="168.96" height="26.8"/>
	<rect x="352.24" y="341.256" style="fill:#515151;" width="33.392" height="26.8"/>
	<rect x="397.432" y="341.256" style="fill:#515151;" width="33.392" height="26.8"/>
	<rect x="442.64" y="341.256" style="fill:#515151;" width="33.392" height="26.8"/>
</g>
<g>
	<rect x="36" y="197.208" style="fill:#FFFFFF;" width="33.392" height="26.8"/>
	<rect x="81.176" y="197.208" style="fill:#FFFFFF;" width="33.392" height="26.8"/>
	<rect x="126.36" y="197.208" style="fill:#FFFFFF;" width="33.392" height="26.8"/>
	<rect x="171.536" y="197.208" style="fill:#FFFFFF;" width="33.392" height="26.8"/>
	<rect x="216.72" y="197.208" style="fill:#FFFFFF;" width="33.392" height="26.8"/>
	<rect x="261.896" y="197.208" style="fill:#FFFFFF;" width="33.392" height="26.8"/>
	<rect x="307.04" y="197.208" style="fill:#FFFFFF;" width="33.392" height="26.8"/>
	<rect x="352.24" y="197.208" style="fill:#FFFFFF;" width="33.392" height="26.8"/>
	<rect x="397.432" y="197.208" style="fill:#FFFFFF;" width="33.392" height="26.8"/>
	<rect x="442.64" y="197.208" style="fill:#FFFFFF;" width="33.392" height="26.8"/>
	<rect x="36" y="232.24" style="fill:#FFFFFF;" width="33.392" height="26.8"/>
	<rect x="81.176" y="232.24" style="fill:#FFFFFF;" width="33.392" height="26.8"/>
	<rect x="126.36" y="232.24" style="fill:#FFFFFF;" width="33.392" height="26.8"/>
	<rect x="171.536" y="232.24" style="fill:#FFFFFF;" width="33.392" height="26.8"/>
	<rect x="216.72" y="232.24" style="fill:#FFFFFF;" width="33.392" height="26.8"/>
	<rect x="261.896" y="232.24" style="fill:#FFFFFF;" width="33.392" height="26.8"/>
	<rect x="307.04" y="232.24" style="fill:#FFFFFF;" width="33.392" height="26.8"/>
	<rect x="352.24" y="232.24" style="fill:#FFFFFF;" width="33.392" height="26.8"/>
	<rect x="397.432" y="232.24" style="fill:#FFFFFF;" width="33.392" height="26.8"/>
	<rect x="442.64" y="232.24" style="fill:#FFFFFF;" width="33.392" height="26.8"/>
	<rect x="36" y="267.208" style="fill:#FFFFFF;" width="33.392" height="26.8"/>
	<rect x="81.176" y="267.208" style="fill:#FFFFFF;" width="33.392" height="26.8"/>
	<rect x="126.36" y="267.208" style="fill:#FFFFFF;" width="33.392" height="26.8"/>
	<rect x="171.536" y="267.208" style="fill:#FFFFFF;" width="33.392" height="26.8"/>
	<rect x="216.72" y="267.208" style="fill:#FFFFFF;" width="33.392" height="26.8"/>
	<rect x="261.896" y="267.208" style="fill:#FFFFFF;" width="33.392" height="26.8"/>
	<rect x="307.04" y="267.208" style="fill:#FFFFFF;" width="33.392" height="26.8"/>
	<rect x="352.24" y="267.208" style="fill:#FFFFFF;" width="33.392" height="26.8"/>
	<rect x="397.432" y="267.208" style="fill:#FFFFFF;" width="33.392" height="26.8"/>
	<rect x="442.64" y="267.208" style="fill:#FFFFFF;" width="33.392" height="26.8"/>
	<rect x="103.784" y="302.208" style="fill:#FFFFFF;" width="33.392" height="26.8"/>
	<rect x="148.96" y="302.208" style="fill:#FFFFFF;" width="33.392" height="26.8"/>
	<rect x="194.144" y="302.208" style="fill:#FFFFFF;" width="33.392" height="26.8"/>
	<rect x="239.32" y="302.208" style="fill:#FFFFFF;" width="33.392" height="26.8"/>
	<rect x="284.496" y="302.208" style="fill:#FFFFFF;" width="33.392" height="26.8"/>
	<rect x="329.68" y="302.208" style="fill:#FFFFFF;" width="33.392" height="26.8"/>
	<rect x="374.856" y="302.208" style="fill:#FFFFFF;" width="33.392" height="26.8"/>
	<rect x="36" y="302.208" style="fill:#FFFFFF;" width="56" height="26.8"/>
	<rect x="420" y="302.208" style="fill:#FFFFFF;" width="56" height="26.8"/>
	<rect x="36" y="337.2" style="fill:#FFFFFF;" width="33.392" height="26.8"/>
	<rect x="81.176" y="337.2" style="fill:#FFFFFF;" width="33.392" height="26.8"/>
	<rect x="126.36" y="337.2" style="fill:#FFFFFF;" width="33.392" height="26.8"/>
	<rect x="171.536" y="337.2" style="fill:#FFFFFF;" width="168.96" height="26.8"/>
	<rect x="352.24" y="337.2" style="fill:#FFFFFF;" width="33.392" height="26.8"/>
	<rect x="397.432" y="337.2" style="fill:#FFFFFF;" width="33.392" height="26.8"/>
	<rect x="442.64" y="337.2" style="fill:#FFFFFF;" width="33.392" height="26.8"/>
</g>
<rect y="397.968" style="fill:#C91818;" width="512" height="19.336"/>
<rect x="252" y="94.696" style="fill:#999999;" width="8" height="72.56"/>
</svg>