<?xml version="1.0" encoding="iso-8859-1"?>
<!-- Uploaded to: SVG Repo, www.svgrepo.com, Generator: SVG Repo Mixer Tools -->
<svg height="800px" width="800px" version="1.1" id="Layer_1" xmlns="http://www.w3.org/2000/svg" xmlns:xlink="http://www.w3.org/1999/xlink" 
	 viewBox="0 0 512 512" xml:space="preserve">
<polygon style="fill:#BD8150;" points="508,128 508,144 452.8,144 60.8,144 4,144 4,128 "/>
<path style="fill:#140500;" d="M508,148H4c-2.4,0-4-1.6-4-4v-16c0-2.4,1.6-4,4-4h504c2.4,0,4,1.6,4,4v16
	C512,146.4,510.4,148,508,148z M8,140h496v-8H8V140z"/>
<path style="fill:#895129;" d="M481.6,384c-0.4,0-0.8,0-1.2,0c-4,0-7.2-2.8-8-6.8l-29.6-189.6l-6.4-42.4l16-1.2L488,374.8
	C489.2,379.2,486.4,383.2,481.6,384z"/>
<path style="fill:#140500;" d="M480.8,388c-6,0-10.8-4.4-12-10l-36-232c0-1.2,0-2.4,0.8-3.2s1.6-1.6,2.8-1.6l16-1.2
	c2,0,4,1.2,4.4,3.2l36,230.8c1.2,6.4-3.6,12.8-10,13.6c0,0,0,0-0.4,0l-0.4-4l0.4,4C481.6,388,481.2,388,480.8,388z M441.2,148.8
	l35.2,227.6c0.4,2,2.4,3.6,4.8,3.2c2-0.4,3.6-2.4,3.2-4.4L449.2,148L441.2,148.8z"/>
<path style="fill:#895129;" d="M31.6,384c-4.4-0.8-7.2-4.8-6.8-9.2l36-230.8l16,1.2l-6.4,42.4L40.8,377.2c-0.4,4-4,6.8-8,6.8
	C32.4,384,32,384,31.6,384z"/>
<path style="fill:#140500;" d="M32.8,388c-0.4,0-1.2,0-1.6,0c0,0,0,0-0.4,0c-3.2-0.4-6-2-8-4.8c-2-2.4-2.8-5.6-2-8.8l36-230.8
	c0.4-2,2.4-3.6,4.4-3.2l16,1.2c1.2,0,2,0.8,2.8,1.6s0.8,2,0.8,3.2l-36,232C43.6,383.6,38.4,388,32.8,388z M32,380
	c2,0.4,4.4-1.2,4.8-3.2L72,149.2l-8-0.8L28.8,375.6c0,1.2,0,2,0.8,3.2C30,379.2,30.8,379.6,32,380z"/>
<path d="M508,148H4c-2.4,0-4-1.6-4-4v-16c0-2.4,1.6-4,4-4h504c2.4,0,4,1.6,4,4v16C512,146.4,510.4,148,508,148z M8,140h496v-8H8V140
	z"/>
<path d="M32.8,388c-0.4,0-1.2,0-1.6,0c-3.6-0.4-6.4-2.4-8-4.8c-2-2.4-2.8-5.6-2-8.8l36-230.8c0.4-2,2.4-3.6,4.4-3.2s3.6,2.4,3.2,4.4
	l-36,230.8c0,1.2,0,2,0.8,3.2c0.8,0.8,1.6,1.6,2.8,1.6l0,0h0.4c2,0,3.6-1.6,4-3.2l36-232c0.4-2,2.4-3.6,4.4-3.2s3.6,2.4,3.2,4.4
	l-36,232C43.6,383.6,38.4,388,32.8,388z"/>
<path d="M480.8,388c-6,0-10.8-4.4-12-10l-36-232c-0.4-2,1.2-4.4,3.2-4.4c2-0.4,4.4,1.2,4.4,3.2l36,232c0.4,2,2.4,3.6,4.8,3.2
	c2-0.4,3.6-2.4,3.2-4.4l-36-230.8c-0.4-2,1.2-4.4,3.2-4.4c2-0.4,4.4,1.2,4.4,3.2l36,230.8c1.2,6.4-3.6,12.8-10,13.6
	C481.6,388,481.2,388,480.8,388z"/>
<path d="M440,192H72c-2.4,0-4-1.6-4-4s1.6-4,4-4h368c2.4,0,4,1.6,4,4S442.4,192,440,192z"/>
</svg>